<?xml version="1.0" encoding="UTF-8" standalone="no"?>
<!DOCTYPE svg PUBLIC "-//W3C//DTD SVG 1.1//EN"
 "http://www.w3.org/Graphics/SVG/1.1/DTD/svg11.dtd">
<!-- Generated by graphviz version 2.47.0 (20210316.0004)
 -->
<!-- Title: dbml Pages: 1 -->
<svg width="1691pt" height="3025pt"
 viewBox="0.00 0.00 1690.79 3024.64" xmlns="http://www.w3.org/2000/svg" xmlns:xlink="http://www.w3.org/1999/xlink">
<g id="graph0" class="graph" transform="scale(1 1) rotate(0) translate(4 3020.64)">
<title>dbml</title>
<!-- Address -->
<g id="Address" class="node">
<title>Address</title>
<ellipse fill="none" stroke="black" stroke-width="0" cx="922.71" cy="-620.53" rx="275.54" ry="257.27"/>
<polygon fill="#1d71b8" stroke="transparent" points="729.71,-740.53 729.71,-800.53 1115.71,-800.53 1115.71,-740.53 729.71,-740.53"/>
<polygon fill="none" stroke="#29235c" points="729.71,-740.53 729.71,-800.53 1115.71,-800.53 1115.71,-740.53 729.71,-740.53"/>
<text text-anchor="start" x="801.78" y="-761.73" font-family="Helvetica,sans-Serif" font-weight="bold" font-size="32.00" fill="#ffffff"> &#160;&#160;&#160;&#160;&#160;&#160;Address &#160;&#160;&#160;&#160;&#160;&#160;</text>
<polygon fill="#e7e2dd" stroke="transparent" points="729.71,-680.53 729.71,-740.53 1115.71,-740.53 1115.71,-680.53 729.71,-680.53"/>
<polygon fill="none" stroke="#29235c" points="729.71,-680.53 729.71,-740.53 1115.71,-740.53 1115.71,-680.53 729.71,-680.53"/>
<text text-anchor="start" x="740.71" y="-701.73" font-family="Helvetica,sans-Serif" font-weight="bold" font-size="32.00" fill="#29235c">id</text>
<text text-anchor="start" x="765.6" y="-701.73" font-family="Helvetica,sans-Serif" font-size="32.00" fill="#29235c"> &#160;&#160;&#160;</text>
<text text-anchor="start" x="962.49" y="-701.73" font-family="Helvetica,sans-Serif" font-style="italic" font-size="32.00" fill="#29235c">INTEGER</text>
<polygon fill="#e7e2dd" stroke="transparent" points="729.71,-620.53 729.71,-680.53 1115.71,-680.53 1115.71,-620.53 729.71,-620.53"/>
<polygon fill="none" stroke="#29235c" points="729.71,-620.53 729.71,-680.53 1115.71,-680.53 1115.71,-620.53 729.71,-620.53"/>
<text text-anchor="start" x="740.71" y="-640.73" font-family="Helvetica,sans-Serif" font-size="32.00" fill="#29235c">customer_id &#160;&#160;&#160;</text>
<text text-anchor="start" x="962.49" y="-641.73" font-family="Helvetica,sans-Serif" font-style="italic" font-size="32.00" fill="#29235c">INTEGER</text>
<polygon fill="#e7e2dd" stroke="transparent" points="729.71,-560.53 729.71,-620.53 1115.71,-620.53 1115.71,-560.53 729.71,-560.53"/>
<polygon fill="none" stroke="#29235c" points="729.71,-560.53 729.71,-620.53 1115.71,-620.53 1115.71,-560.53 729.71,-560.53"/>
<text text-anchor="start" x="740.71" y="-580.73" font-family="Helvetica,sans-Serif" font-size="32.00" fill="#29235c">street &#160;&#160;&#160;</text>
<text text-anchor="start" x="948.29" y="-581.73" font-family="Helvetica,sans-Serif" font-style="italic" font-size="32.00" fill="#29235c">VARCHAR</text>
<polygon fill="#e7e2dd" stroke="transparent" points="729.71,-500.53 729.71,-560.53 1115.71,-560.53 1115.71,-500.53 729.71,-500.53"/>
<polygon fill="none" stroke="#29235c" points="729.71,-500.53 729.71,-560.53 1115.71,-560.53 1115.71,-500.53 729.71,-500.53"/>
<text text-anchor="start" x="740.71" y="-520.73" font-family="Helvetica,sans-Serif" font-size="32.00" fill="#29235c">city &#160;&#160;&#160;</text>
<text text-anchor="start" x="948.29" y="-521.73" font-family="Helvetica,sans-Serif" font-style="italic" font-size="32.00" fill="#29235c">VARCHAR</text>
<polygon fill="#e7e2dd" stroke="transparent" points="729.71,-440.53 729.71,-500.53 1115.71,-500.53 1115.71,-440.53 729.71,-440.53"/>
<polygon fill="none" stroke="#29235c" points="729.71,-440.53 729.71,-500.53 1115.71,-500.53 1115.71,-440.53 729.71,-440.53"/>
<text text-anchor="start" x="740.67" y="-460.73" font-family="Helvetica,sans-Serif" font-size="32.00" fill="#29235c">postal_code &#160;&#160;&#160;</text>
<text text-anchor="start" x="948.5" y="-461.73" font-family="Helvetica,sans-Serif" font-style="italic" font-size="32.00" fill="#29235c">VARCHAR</text>
<polygon fill="none" stroke="#29235c" stroke-width="2" points="728.71,-439.53 728.71,-801.53 1116.71,-801.53 1116.71,-439.53 728.71,-439.53"/>
</g>
<!-- Customer -->
<g id="Customer" class="node">
<title>Customer</title>
<ellipse fill="none" stroke="black" stroke-width="0" cx="1458.64" cy="-886.53" rx="224.31" ry="214.92"/>
<polygon fill="#1d71b8" stroke="transparent" points="1302.64,-976.53 1302.64,-1036.53 1615.64,-1036.53 1615.64,-976.53 1302.64,-976.53"/>
<polygon fill="none" stroke="#29235c" points="1302.64,-976.53 1302.64,-1036.53 1615.64,-1036.53 1615.64,-976.53 1302.64,-976.53"/>
<text text-anchor="start" x="1327.55" y="-997.73" font-family="Helvetica,sans-Serif" font-weight="bold" font-size="32.00" fill="#ffffff"> &#160;&#160;&#160;&#160;&#160;&#160;Customer &#160;&#160;&#160;&#160;&#160;&#160;</text>
<polygon fill="#e7e2dd" stroke="transparent" points="1302.64,-916.53 1302.64,-976.53 1615.64,-976.53 1615.64,-916.53 1302.64,-916.53"/>
<polygon fill="none" stroke="#29235c" points="1302.64,-916.53 1302.64,-976.53 1615.64,-976.53 1615.64,-916.53 1302.64,-916.53"/>
<text text-anchor="start" x="1313.64" y="-937.73" font-family="Helvetica,sans-Serif" font-weight="bold" font-size="32.00" fill="#29235c">id</text>
<text text-anchor="start" x="1338.53" y="-937.73" font-family="Helvetica,sans-Serif" font-size="32.00" fill="#29235c"> &#160;&#160;&#160;</text>
<text text-anchor="start" x="1462.42" y="-937.73" font-family="Helvetica,sans-Serif" font-style="italic" font-size="32.00" fill="#29235c">INTEGER</text>
<polygon fill="#e7e2dd" stroke="transparent" points="1302.64,-856.53 1302.64,-916.53 1615.64,-916.53 1615.64,-856.53 1302.64,-856.53"/>
<polygon fill="none" stroke="#29235c" points="1302.64,-856.53 1302.64,-916.53 1615.64,-916.53 1615.64,-856.53 1302.64,-856.53"/>
<text text-anchor="start" x="1313.64" y="-876.73" font-family="Helvetica,sans-Serif" font-size="32.00" fill="#29235c">name &#160;&#160;&#160;</text>
<text text-anchor="start" x="1448.21" y="-877.73" font-family="Helvetica,sans-Serif" font-style="italic" font-size="32.00" fill="#29235c">VARCHAR</text>
<polygon fill="#e7e2dd" stroke="transparent" points="1302.64,-796.53 1302.64,-856.53 1615.64,-856.53 1615.64,-796.53 1302.64,-796.53"/>
<polygon fill="none" stroke="#29235c" points="1302.64,-796.53 1302.64,-856.53 1615.64,-856.53 1615.64,-796.53 1302.64,-796.53"/>
<text text-anchor="start" x="1313.42" y="-816.73" font-family="Helvetica,sans-Serif" font-size="32.00" fill="#29235c">credit_limit &#160;&#160;&#160;</text>
<text text-anchor="start" x="1501.58" y="-817.73" font-family="Helvetica,sans-Serif" font-style="italic" font-size="32.00" fill="#29235c">FLOAT</text>
<polygon fill="#e7e2dd" stroke="transparent" points="1302.64,-736.53 1302.64,-796.53 1615.64,-796.53 1615.64,-736.53 1302.64,-736.53"/>
<polygon fill="none" stroke="#29235c" points="1302.64,-736.53 1302.64,-796.53 1615.64,-796.53 1615.64,-736.53 1302.64,-736.53"/>
<text text-anchor="start" x="1313.64" y="-756.73" font-family="Helvetica,sans-Serif" font-size="32.00" fill="#29235c">balance &#160;&#160;&#160;</text>
<text text-anchor="start" x="1501.52" y="-757.73" font-family="Helvetica,sans-Serif" font-style="italic" font-size="32.00" fill="#29235c">FLOAT</text>
<polygon fill="none" stroke="#29235c" stroke-width="2" points="1301.14,-735.53 1301.14,-1037.53 1616.14,-1037.53 1616.14,-735.53 1301.14,-735.53"/>
</g>
<!-- Address&#45;&gt;Customer -->
<!-- Address&#45;&gt;Customer -->
<g id="edge2" class="edge">
<title>Address:e&#45;&gt;Customer:w</title>
<path fill="none" stroke="#29235c" stroke-width="3" d="M1116.71,-650.53C1268.35,-650.53 1152.01,-933.39 1291.6,-946.09"/>
<polygon fill="#29235c" stroke="#29235c" stroke-width="3" points="1291.49,-949.59 1301.64,-946.53 1291.8,-942.6 1291.49,-949.59"/>
<text text-anchor="middle" x="1295.41" y="-917.73" font-family="Helvetica,sans-Serif" font-size="32.00" fill="#29235c">*</text>
<text text-anchor="middle" x="1107.82" y="-621.73" font-family="Helvetica,sans-Serif" font-size="32.00" fill="#29235c">1</text>
</g>
<!-- Category -->
<g id="Category" class="node">
<title>Category</title>
<ellipse fill="none" stroke="black" stroke-width="0" cx="305.47" cy="-1881.53" rx="210.02" ry="130.22"/>
<polygon fill="#1d71b8" stroke="transparent" points="159.47,-1911.53 159.47,-1971.53 452.47,-1971.53 452.47,-1911.53 159.47,-1911.53"/>
<polygon fill="none" stroke="#29235c" points="159.47,-1911.53 159.47,-1971.53 452.47,-1971.53 452.47,-1911.53 159.47,-1911.53"/>
<text text-anchor="start" x="178.82" y="-1932.73" font-family="Helvetica,sans-Serif" font-weight="bold" font-size="32.00" fill="#ffffff"> &#160;&#160;&#160;&#160;&#160;&#160;Category &#160;&#160;&#160;&#160;&#160;&#160;</text>
<polygon fill="#e7e2dd" stroke="transparent" points="159.47,-1851.53 159.47,-1911.53 452.47,-1911.53 452.47,-1851.53 159.47,-1851.53"/>
<polygon fill="none" stroke="#29235c" points="159.47,-1851.53 159.47,-1911.53 452.47,-1911.53 452.47,-1851.53 159.47,-1851.53"/>
<text text-anchor="start" x="170.47" y="-1872.73" font-family="Helvetica,sans-Serif" font-weight="bold" font-size="32.00" fill="#29235c">id</text>
<text text-anchor="start" x="195.36" y="-1872.73" font-family="Helvetica,sans-Serif" font-size="32.00" fill="#29235c"> &#160;&#160;&#160;</text>
<text text-anchor="start" x="299.25" y="-1872.73" font-family="Helvetica,sans-Serif" font-style="italic" font-size="32.00" fill="#29235c">INTEGER</text>
<polygon fill="#e7e2dd" stroke="transparent" points="159.47,-1791.53 159.47,-1851.53 452.47,-1851.53 452.47,-1791.53 159.47,-1791.53"/>
<polygon fill="none" stroke="#29235c" points="159.47,-1791.53 159.47,-1851.53 452.47,-1851.53 452.47,-1791.53 159.47,-1791.53"/>
<text text-anchor="start" x="170.17" y="-1811.73" font-family="Helvetica,sans-Serif" font-size="32.00" fill="#29235c">name &#160;&#160;&#160;</text>
<text text-anchor="start" x="285.26" y="-1812.73" font-family="Helvetica,sans-Serif" font-style="italic" font-size="32.00" fill="#29235c">VARCHAR</text>
<polygon fill="none" stroke="#29235c" stroke-width="2" points="157.97,-1790.53 157.97,-1972.53 452.97,-1972.53 452.97,-1790.53 157.97,-1790.53"/>
</g>
<!-- Employee -->
<g id="Employee" class="node">
<title>Employee</title>
<ellipse fill="none" stroke="black" stroke-width="0" cx="305.47" cy="-2202.53" rx="231.45" ry="172.57"/>
<polygon fill="#1d71b8" stroke="transparent" points="144.47,-2262.53 144.47,-2322.53 467.47,-2322.53 467.47,-2262.53 144.47,-2262.53"/>
<polygon fill="none" stroke="#29235c" points="144.47,-2262.53 144.47,-2322.53 467.47,-2322.53 467.47,-2262.53 144.47,-2262.53"/>
<text text-anchor="start" x="172.6" y="-2283.73" font-family="Helvetica,sans-Serif" font-weight="bold" font-size="32.00" fill="#ffffff"> &#160;&#160;&#160;&#160;&#160;&#160;Employee &#160;&#160;&#160;&#160;&#160;&#160;</text>
<polygon fill="#e7e2dd" stroke="transparent" points="144.47,-2202.53 144.47,-2262.53 467.47,-2262.53 467.47,-2202.53 144.47,-2202.53"/>
<polygon fill="none" stroke="#29235c" points="144.47,-2202.53 144.47,-2262.53 467.47,-2262.53 467.47,-2202.53 144.47,-2202.53"/>
<text text-anchor="start" x="155.47" y="-2223.73" font-family="Helvetica,sans-Serif" font-weight="bold" font-size="32.00" fill="#29235c">id</text>
<text text-anchor="start" x="180.36" y="-2223.73" font-family="Helvetica,sans-Serif" font-size="32.00" fill="#29235c"> &#160;&#160;&#160;</text>
<text text-anchor="start" x="314.25" y="-2223.73" font-family="Helvetica,sans-Serif" font-style="italic" font-size="32.00" fill="#29235c">INTEGER</text>
<polygon fill="#e7e2dd" stroke="transparent" points="144.47,-2142.53 144.47,-2202.53 467.47,-2202.53 467.47,-2142.53 144.47,-2142.53"/>
<polygon fill="none" stroke="#29235c" points="144.47,-2142.53 144.47,-2202.53 467.47,-2202.53 467.47,-2142.53 144.47,-2142.53"/>
<text text-anchor="start" x="155.47" y="-2162.73" font-family="Helvetica,sans-Serif" font-size="32.00" fill="#29235c">name &#160;&#160;&#160;</text>
<text text-anchor="start" x="300.04" y="-2163.73" font-family="Helvetica,sans-Serif" font-style="italic" font-size="32.00" fill="#29235c">VARCHAR</text>
<polygon fill="#e7e2dd" stroke="transparent" points="144.47,-2082.53 144.47,-2142.53 467.47,-2142.53 467.47,-2082.53 144.47,-2082.53"/>
<polygon fill="none" stroke="#29235c" points="144.47,-2082.53 144.47,-2142.53 467.47,-2142.53 467.47,-2082.53 144.47,-2082.53"/>
<text text-anchor="start" x="155.06" y="-2102.73" font-family="Helvetica,sans-Serif" font-size="32.00" fill="#29235c">position &#160;&#160;&#160;</text>
<text text-anchor="start" x="300.26" y="-2103.73" font-family="Helvetica,sans-Serif" font-style="italic" font-size="32.00" fill="#29235c">VARCHAR</text>
<polygon fill="none" stroke="#29235c" stroke-width="2" points="142.97,-2081.53 142.97,-2323.53 467.97,-2323.53 467.97,-2081.53 142.97,-2081.53"/>
</g>
<!-- Inventory -->
<g id="Inventory" class="node">
<title>Inventory</title>
<ellipse fill="none" stroke="black" stroke-width="0" cx="305.47" cy="-172.53" rx="248.8" ry="172.57"/>
<polygon fill="#1d71b8" stroke="transparent" points="131.47,-232.53 131.47,-292.53 479.47,-292.53 479.47,-232.53 131.47,-232.53"/>
<polygon fill="none" stroke="#29235c" points="131.47,-232.53 131.47,-292.53 479.47,-292.53 479.47,-232.53 131.47,-232.53"/>
<text text-anchor="start" x="177.42" y="-253.73" font-family="Helvetica,sans-Serif" font-weight="bold" font-size="32.00" fill="#ffffff"> &#160;&#160;&#160;&#160;&#160;&#160;Inventory &#160;&#160;&#160;&#160;&#160;&#160;</text>
<polygon fill="#e7e2dd" stroke="transparent" points="131.47,-172.53 131.47,-232.53 479.47,-232.53 479.47,-172.53 131.47,-172.53"/>
<polygon fill="none" stroke="#29235c" points="131.47,-172.53 131.47,-232.53 479.47,-232.53 479.47,-172.53 131.47,-172.53"/>
<text text-anchor="start" x="142.47" y="-193.73" font-family="Helvetica,sans-Serif" font-weight="bold" font-size="32.00" fill="#29235c">id</text>
<text text-anchor="start" x="167.36" y="-193.73" font-family="Helvetica,sans-Serif" font-size="32.00" fill="#29235c"> &#160;&#160;&#160;</text>
<text text-anchor="start" x="326.25" y="-193.73" font-family="Helvetica,sans-Serif" font-style="italic" font-size="32.00" fill="#29235c">INTEGER</text>
<polygon fill="#e7e2dd" stroke="transparent" points="131.47,-112.53 131.47,-172.53 479.47,-172.53 479.47,-112.53 131.47,-112.53"/>
<polygon fill="none" stroke="#29235c" points="131.47,-112.53 131.47,-172.53 479.47,-172.53 479.47,-112.53 131.47,-112.53"/>
<text text-anchor="start" x="141.99" y="-132.73" font-family="Helvetica,sans-Serif" font-size="32.00" fill="#29235c">product_id &#160;&#160;&#160;</text>
<text text-anchor="start" x="326.36" y="-133.73" font-family="Helvetica,sans-Serif" font-style="italic" font-size="32.00" fill="#29235c">INTEGER</text>
<polygon fill="#e7e2dd" stroke="transparent" points="131.47,-52.53 131.47,-112.53 479.47,-112.53 479.47,-52.53 131.47,-52.53"/>
<polygon fill="none" stroke="#29235c" points="131.47,-52.53 131.47,-112.53 479.47,-112.53 479.47,-52.53 131.47,-52.53"/>
<text text-anchor="start" x="142.47" y="-72.73" font-family="Helvetica,sans-Serif" font-size="32.00" fill="#29235c">quantity &#160;&#160;&#160;</text>
<text text-anchor="start" x="326.25" y="-73.73" font-family="Helvetica,sans-Serif" font-style="italic" font-size="32.00" fill="#29235c">INTEGER</text>
<polygon fill="none" stroke="#29235c" stroke-width="2" points="130.47,-51.53 130.47,-293.53 480.47,-293.53 480.47,-51.53 130.47,-51.53"/>
</g>
<!-- Product -->
<g id="Product" class="node">
<title>Product</title>
<ellipse fill="none" stroke="black" stroke-width="0" cx="922.71" cy="-172.53" rx="210.02" ry="172.57"/>
<polygon fill="#1d71b8" stroke="transparent" points="776.71,-232.53 776.71,-292.53 1069.71,-292.53 1069.71,-232.53 776.71,-232.53"/>
<polygon fill="none" stroke="#29235c" points="776.71,-232.53 776.71,-292.53 1069.71,-292.53 1069.71,-232.53 776.71,-232.53"/>
<text text-anchor="start" x="805.84" y="-253.73" font-family="Helvetica,sans-Serif" font-weight="bold" font-size="32.00" fill="#ffffff"> &#160;&#160;&#160;&#160;&#160;&#160;Product &#160;&#160;&#160;&#160;&#160;&#160;</text>
<polygon fill="#e7e2dd" stroke="transparent" points="776.71,-172.53 776.71,-232.53 1069.71,-232.53 1069.71,-172.53 776.71,-172.53"/>
<polygon fill="none" stroke="#29235c" points="776.71,-172.53 776.71,-232.53 1069.71,-232.53 1069.71,-172.53 776.71,-172.53"/>
<text text-anchor="start" x="787.71" y="-193.73" font-family="Helvetica,sans-Serif" font-weight="bold" font-size="32.00" fill="#29235c">id</text>
<text text-anchor="start" x="812.6" y="-193.73" font-family="Helvetica,sans-Serif" font-size="32.00" fill="#29235c"> &#160;&#160;&#160;</text>
<text text-anchor="start" x="916.49" y="-193.73" font-family="Helvetica,sans-Serif" font-style="italic" font-size="32.00" fill="#29235c">INTEGER</text>
<polygon fill="#e7e2dd" stroke="transparent" points="776.71,-112.53 776.71,-172.53 1069.71,-172.53 1069.71,-112.53 776.71,-112.53"/>
<polygon fill="none" stroke="#29235c" points="776.71,-112.53 776.71,-172.53 1069.71,-172.53 1069.71,-112.53 776.71,-112.53"/>
<text text-anchor="start" x="787.42" y="-132.73" font-family="Helvetica,sans-Serif" font-size="32.00" fill="#29235c">name &#160;&#160;&#160;</text>
<text text-anchor="start" x="902.5" y="-133.73" font-family="Helvetica,sans-Serif" font-style="italic" font-size="32.00" fill="#29235c">VARCHAR</text>
<polygon fill="#e7e2dd" stroke="transparent" points="776.71,-52.53 776.71,-112.53 1069.71,-112.53 1069.71,-52.53 776.71,-52.53"/>
<polygon fill="none" stroke="#29235c" points="776.71,-52.53 776.71,-112.53 1069.71,-112.53 1069.71,-52.53 776.71,-52.53"/>
<text text-anchor="start" x="787.71" y="-72.73" font-family="Helvetica,sans-Serif" font-size="32.00" fill="#29235c">price &#160;&#160;&#160;</text>
<text text-anchor="start" x="955.59" y="-73.73" font-family="Helvetica,sans-Serif" font-style="italic" font-size="32.00" fill="#29235c">FLOAT</text>
<polygon fill="none" stroke="#29235c" stroke-width="2" points="775.21,-51.53 775.21,-293.53 1070.21,-293.53 1070.21,-51.53 775.21,-51.53"/>
</g>
<!-- Inventory&#45;&gt;Product -->
<!-- Inventory&#45;&gt;Product -->
<g id="edge4" class="edge">
<title>Inventory:e&#45;&gt;Product:w</title>
<path fill="none" stroke="#29235c" stroke-width="3" d="M480.47,-142.53C610.84,-142.53 640.29,-199.41 765.34,-202.41"/>
<polygon fill="#29235c" stroke="#29235c" stroke-width="3" points="765.67,-205.92 775.71,-202.53 765.75,-198.92 765.67,-205.92"/>
<text text-anchor="middle" x="769.49" y="-173.73" font-family="Helvetica,sans-Serif" font-size="32.00" fill="#29235c">*</text>
<text text-anchor="middle" x="471.58" y="-113.73" font-family="Helvetica,sans-Serif" font-size="32.00" fill="#29235c">1</text>
</g>
<!-- Order -->
<g id="Order" class="node">
<title>Order</title>
<ellipse fill="none" stroke="black" stroke-width="0" cx="922.71" cy="-1153.53" rx="266.66" ry="257.27"/>
<polygon fill="#1d71b8" stroke="transparent" points="736.71,-1273.53 736.71,-1333.53 1109.71,-1333.53 1109.71,-1273.53 736.71,-1273.53"/>
<polygon fill="none" stroke="#29235c" points="736.71,-1273.53 736.71,-1333.53 1109.71,-1333.53 1109.71,-1273.53 736.71,-1273.53"/>
<text text-anchor="start" x="820.07" y="-1294.73" font-family="Helvetica,sans-Serif" font-weight="bold" font-size="32.00" fill="#ffffff"> &#160;&#160;&#160;&#160;&#160;&#160;Order &#160;&#160;&#160;&#160;&#160;&#160;</text>
<polygon fill="#e7e2dd" stroke="transparent" points="736.71,-1213.53 736.71,-1273.53 1109.71,-1273.53 1109.71,-1213.53 736.71,-1213.53"/>
<polygon fill="none" stroke="#29235c" points="736.71,-1213.53 736.71,-1273.53 1109.71,-1273.53 1109.71,-1213.53 736.71,-1213.53"/>
<text text-anchor="start" x="747.71" y="-1234.73" font-family="Helvetica,sans-Serif" font-weight="bold" font-size="32.00" fill="#29235c">id</text>
<text text-anchor="start" x="772.6" y="-1234.73" font-family="Helvetica,sans-Serif" font-size="32.00" fill="#29235c"> &#160;&#160;&#160;</text>
<text text-anchor="start" x="956.49" y="-1234.73" font-family="Helvetica,sans-Serif" font-style="italic" font-size="32.00" fill="#29235c">INTEGER</text>
<polygon fill="#e7e2dd" stroke="transparent" points="736.71,-1153.53 736.71,-1213.53 1109.71,-1213.53 1109.71,-1153.53 736.71,-1153.53"/>
<polygon fill="none" stroke="#29235c" points="736.71,-1153.53 736.71,-1213.53 1109.71,-1213.53 1109.71,-1153.53 736.71,-1153.53"/>
<text text-anchor="start" x="747.3" y="-1173.73" font-family="Helvetica,sans-Serif" font-size="32.00" fill="#29235c">customer_id &#160;&#160;&#160;</text>
<text text-anchor="start" x="956.6" y="-1174.73" font-family="Helvetica,sans-Serif" font-style="italic" font-size="32.00" fill="#29235c">INTEGER</text>
<polygon fill="#e7e2dd" stroke="transparent" points="736.71,-1093.53 736.71,-1153.53 1109.71,-1153.53 1109.71,-1093.53 736.71,-1093.53"/>
<polygon fill="none" stroke="#29235c" points="736.71,-1093.53 736.71,-1153.53 1109.71,-1153.53 1109.71,-1093.53 736.71,-1093.53"/>
<text text-anchor="start" x="747.57" y="-1113.73" font-family="Helvetica,sans-Serif" font-size="32.00" fill="#29235c">order_date &#160;&#160;&#160;</text>
<text text-anchor="start" x="937.33" y="-1114.73" font-family="Helvetica,sans-Serif" font-style="italic" font-size="32.00" fill="#29235c">DATETIME</text>
<polygon fill="#e7e2dd" stroke="transparent" points="736.71,-1033.53 736.71,-1093.53 1109.71,-1093.53 1109.71,-1033.53 736.71,-1033.53"/>
<polygon fill="none" stroke="#29235c" points="736.71,-1033.53 736.71,-1093.53 1109.71,-1093.53 1109.71,-1033.53 736.71,-1033.53"/>
<text text-anchor="start" x="747.71" y="-1053.73" font-family="Helvetica,sans-Serif" font-size="32.00" fill="#29235c">amount_total &#160;&#160;&#160;</text>
<text text-anchor="start" x="995.59" y="-1054.73" font-family="Helvetica,sans-Serif" font-style="italic" font-size="32.00" fill="#29235c">FLOAT</text>
<polygon fill="#e7e2dd" stroke="transparent" points="736.71,-973.53 736.71,-1033.53 1109.71,-1033.53 1109.71,-973.53 736.71,-973.53"/>
<polygon fill="none" stroke="#29235c" points="736.71,-973.53 736.71,-1033.53 1109.71,-1033.53 1109.71,-973.53 736.71,-973.53"/>
<text text-anchor="start" x="747.71" y="-993.73" font-family="Helvetica,sans-Serif" font-size="32.00" fill="#29235c">notes &#160;&#160;&#160;</text>
<text text-anchor="start" x="942.29" y="-994.73" font-family="Helvetica,sans-Serif" font-style="italic" font-size="32.00" fill="#29235c">VARCHAR</text>
<polygon fill="none" stroke="#29235c" stroke-width="2" points="735.21,-972.53 735.21,-1334.53 1110.21,-1334.53 1110.21,-972.53 735.21,-972.53"/>
</g>
<!-- Order&#45;&gt;Customer -->
<!-- Order&#45;&gt;Customer -->
<g id="edge6" class="edge">
<title>Order:e&#45;&gt;Customer:w</title>
<path fill="none" stroke="#29235c" stroke-width="3" d="M1110.71,-1183.53C1242.41,-1183.53 1170.42,-958.87 1291.38,-947.02"/>
<polygon fill="#29235c" stroke="#29235c" stroke-width="3" points="1291.81,-950.5 1301.64,-946.53 1291.48,-943.51 1291.81,-950.5"/>
<text text-anchor="middle" x="1295.41" y="-956.13" font-family="Helvetica,sans-Serif" font-size="32.00" fill="#29235c">*</text>
<text text-anchor="middle" x="1101.82" y="-1193.13" font-family="Helvetica,sans-Serif" font-size="32.00" fill="#29235c">1</text>
</g>
<!-- OrderItem -->
<g id="OrderItem" class="node">
<title>OrderItem</title>
<ellipse fill="none" stroke="black" stroke-width="0" cx="305.47" cy="-692.53" rx="248.8" ry="299.63"/>
<polygon fill="#1d71b8" stroke="transparent" points="131.47,-842.53 131.47,-902.53 479.47,-902.53 479.47,-842.53 131.47,-842.53"/>
<polygon fill="none" stroke="#29235c" points="131.47,-842.53 131.47,-902.53 479.47,-902.53 479.47,-842.53 131.47,-842.53"/>
<text text-anchor="start" x="171.22" y="-863.73" font-family="Helvetica,sans-Serif" font-weight="bold" font-size="32.00" fill="#ffffff"> &#160;&#160;&#160;&#160;&#160;&#160;OrderItem &#160;&#160;&#160;&#160;&#160;&#160;</text>
<polygon fill="#e7e2dd" stroke="transparent" points="131.47,-782.53 131.47,-842.53 479.47,-842.53 479.47,-782.53 131.47,-782.53"/>
<polygon fill="none" stroke="#29235c" points="131.47,-782.53 131.47,-842.53 479.47,-842.53 479.47,-782.53 131.47,-782.53"/>
<text text-anchor="start" x="142.47" y="-803.73" font-family="Helvetica,sans-Serif" font-weight="bold" font-size="32.00" fill="#29235c">id</text>
<text text-anchor="start" x="167.36" y="-803.73" font-family="Helvetica,sans-Serif" font-size="32.00" fill="#29235c"> &#160;&#160;&#160;</text>
<text text-anchor="start" x="326.25" y="-803.73" font-family="Helvetica,sans-Serif" font-style="italic" font-size="32.00" fill="#29235c">INTEGER</text>
<polygon fill="#e7e2dd" stroke="transparent" points="131.47,-722.53 131.47,-782.53 479.47,-782.53 479.47,-722.53 131.47,-722.53"/>
<polygon fill="none" stroke="#29235c" points="131.47,-722.53 131.47,-782.53 479.47,-782.53 479.47,-722.53 131.47,-722.53"/>
<text text-anchor="start" x="142.47" y="-742.73" font-family="Helvetica,sans-Serif" font-size="32.00" fill="#29235c">order_id &#160;&#160;&#160;</text>
<text text-anchor="start" x="326.25" y="-743.73" font-family="Helvetica,sans-Serif" font-style="italic" font-size="32.00" fill="#29235c">INTEGER</text>
<polygon fill="#e7e2dd" stroke="transparent" points="131.47,-662.53 131.47,-722.53 479.47,-722.53 479.47,-662.53 131.47,-662.53"/>
<polygon fill="none" stroke="#29235c" points="131.47,-662.53 131.47,-722.53 479.47,-722.53 479.47,-662.53 131.47,-662.53"/>
<text text-anchor="start" x="141.99" y="-682.73" font-family="Helvetica,sans-Serif" font-size="32.00" fill="#29235c">product_id &#160;&#160;&#160;</text>
<text text-anchor="start" x="326.36" y="-683.73" font-family="Helvetica,sans-Serif" font-style="italic" font-size="32.00" fill="#29235c">INTEGER</text>
<polygon fill="#e7e2dd" stroke="transparent" points="131.47,-602.53 131.47,-662.53 479.47,-662.53 479.47,-602.53 131.47,-602.53"/>
<polygon fill="none" stroke="#29235c" points="131.47,-602.53 131.47,-662.53 479.47,-662.53 479.47,-602.53 131.47,-602.53"/>
<text text-anchor="start" x="142.47" y="-622.73" font-family="Helvetica,sans-Serif" font-size="32.00" fill="#29235c">quantity &#160;&#160;&#160;</text>
<text text-anchor="start" x="326.25" y="-623.73" font-family="Helvetica,sans-Serif" font-style="italic" font-size="32.00" fill="#29235c">INTEGER</text>
<polygon fill="#e7e2dd" stroke="transparent" points="131.47,-542.53 131.47,-602.53 479.47,-602.53 479.47,-542.53 131.47,-542.53"/>
<polygon fill="none" stroke="#29235c" points="131.47,-542.53 131.47,-602.53 479.47,-602.53 479.47,-542.53 131.47,-542.53"/>
<text text-anchor="start" x="142.47" y="-562.73" font-family="Helvetica,sans-Serif" font-size="32.00" fill="#29235c">unit_price &#160;&#160;&#160;</text>
<text text-anchor="start" x="365.35" y="-563.73" font-family="Helvetica,sans-Serif" font-style="italic" font-size="32.00" fill="#29235c">FLOAT</text>
<polygon fill="#e7e2dd" stroke="transparent" points="131.47,-482.53 131.47,-542.53 479.47,-542.53 479.47,-482.53 131.47,-482.53"/>
<polygon fill="none" stroke="#29235c" points="131.47,-482.53 131.47,-542.53 479.47,-542.53 479.47,-482.53 131.47,-482.53"/>
<text text-anchor="start" x="142.47" y="-502.73" font-family="Helvetica,sans-Serif" font-size="32.00" fill="#29235c">total_price &#160;&#160;&#160;</text>
<text text-anchor="start" x="365.35" y="-503.73" font-family="Helvetica,sans-Serif" font-style="italic" font-size="32.00" fill="#29235c">FLOAT</text>
<polygon fill="none" stroke="#29235c" stroke-width="2" points="130.47,-481.53 130.47,-903.53 480.47,-903.53 480.47,-481.53 130.47,-481.53"/>
</g>
<!-- OrderItem&#45;&gt;Product -->
<!-- OrderItem&#45;&gt;Product -->
<g id="edge10" class="edge">
<title>OrderItem:e&#45;&gt;Product:w</title>
<path fill="none" stroke="#29235c" stroke-width="3" d="M480.47,-692.53C731.25,-692.53 527.2,-215.84 765.54,-202.81"/>
<polygon fill="#29235c" stroke="#29235c" stroke-width="3" points="765.81,-206.3 775.71,-202.53 765.62,-199.3 765.81,-206.3"/>
<text text-anchor="middle" x="769.49" y="-212.13" font-family="Helvetica,sans-Serif" font-size="32.00" fill="#29235c">*</text>
<text text-anchor="middle" x="471.58" y="-663.73" font-family="Helvetica,sans-Serif" font-size="32.00" fill="#29235c">1</text>
</g>
<!-- OrderItem&#45;&gt;Order -->
<!-- OrderItem&#45;&gt;Order -->
<g id="edge8" class="edge">
<title>OrderItem:e&#45;&gt;Order:w</title>
<path fill="none" stroke="#29235c" stroke-width="3" d="M480.47,-752.53C599.96,-752.53 612.12,-1216.12 725.53,-1242.37"/>
<polygon fill="#29235c" stroke="#29235c" stroke-width="3" points="725.38,-1245.88 735.71,-1243.53 726.17,-1238.93 725.38,-1245.88"/>
<text text-anchor="middle" x="729.49" y="-1253.13" font-family="Helvetica,sans-Serif" font-size="32.00" fill="#29235c">*</text>
<text text-anchor="middle" x="471.58" y="-723.73" font-family="Helvetica,sans-Serif" font-size="32.00" fill="#29235c">1</text>
</g>
<!-- Payment -->
<g id="Payment" class="node">
<title>Payment</title>
<ellipse fill="none" stroke="black" stroke-width="0" cx="305.47" cy="-1560.53" rx="246.56" ry="172.57"/>
<polygon fill="#1d71b8" stroke="transparent" points="133.47,-1620.53 133.47,-1680.53 478.47,-1680.53 478.47,-1620.53 133.47,-1620.53"/>
<polygon fill="none" stroke="#29235c" points="133.47,-1620.53 133.47,-1680.53 478.47,-1680.53 478.47,-1620.53 133.47,-1620.53"/>
<text text-anchor="start" x="180.59" y="-1641.73" font-family="Helvetica,sans-Serif" font-weight="bold" font-size="32.00" fill="#ffffff"> &#160;&#160;&#160;&#160;&#160;&#160;Payment &#160;&#160;&#160;&#160;&#160;&#160;</text>
<polygon fill="#e7e2dd" stroke="transparent" points="133.47,-1560.53 133.47,-1620.53 478.47,-1620.53 478.47,-1560.53 133.47,-1560.53"/>
<polygon fill="none" stroke="#29235c" points="133.47,-1560.53 133.47,-1620.53 478.47,-1620.53 478.47,-1560.53 133.47,-1560.53"/>
<text text-anchor="start" x="144.47" y="-1581.73" font-family="Helvetica,sans-Serif" font-weight="bold" font-size="32.00" fill="#29235c">id</text>
<text text-anchor="start" x="169.36" y="-1581.73" font-family="Helvetica,sans-Serif" font-size="32.00" fill="#29235c"> &#160;&#160;&#160;</text>
<text text-anchor="start" x="325.25" y="-1581.73" font-family="Helvetica,sans-Serif" font-style="italic" font-size="32.00" fill="#29235c">INTEGER</text>
<polygon fill="#e7e2dd" stroke="transparent" points="133.47,-1500.53 133.47,-1560.53 478.47,-1560.53 478.47,-1500.53 133.47,-1500.53"/>
<polygon fill="none" stroke="#29235c" points="133.47,-1500.53 133.47,-1560.53 478.47,-1560.53 478.47,-1500.53 133.47,-1500.53"/>
<text text-anchor="start" x="144.47" y="-1520.73" font-family="Helvetica,sans-Serif" font-size="32.00" fill="#29235c">order_id &#160;&#160;&#160;</text>
<text text-anchor="start" x="325.25" y="-1521.73" font-family="Helvetica,sans-Serif" font-style="italic" font-size="32.00" fill="#29235c">INTEGER</text>
<polygon fill="#e7e2dd" stroke="transparent" points="133.47,-1440.53 133.47,-1500.53 478.47,-1500.53 478.47,-1440.53 133.47,-1440.53"/>
<polygon fill="none" stroke="#29235c" points="133.47,-1440.53 133.47,-1500.53 478.47,-1500.53 478.47,-1440.53 133.47,-1440.53"/>
<text text-anchor="start" x="144.21" y="-1460.73" font-family="Helvetica,sans-Serif" font-size="32.00" fill="#29235c">amount_paid &#160;&#160;&#160;</text>
<text text-anchor="start" x="364.41" y="-1461.73" font-family="Helvetica,sans-Serif" font-style="italic" font-size="32.00" fill="#29235c">FLOAT</text>
<polygon fill="none" stroke="#29235c" stroke-width="2" points="131.97,-1439.53 131.97,-1681.53 478.97,-1681.53 478.97,-1439.53 131.97,-1439.53"/>
</g>
<!-- Payment&#45;&gt;Order -->
<!-- Payment&#45;&gt;Order -->
<g id="edge12" class="edge">
<title>Payment:e&#45;&gt;Order:w</title>
<path fill="none" stroke="#29235c" stroke-width="3" d="M479.47,-1530.53C561.63,-1530.53 643.55,-1265.52 725.69,-1244.81"/>
<polygon fill="#29235c" stroke="#29235c" stroke-width="3" points="726.24,-1248.27 735.71,-1243.53 725.35,-1241.33 726.24,-1248.27"/>
<text text-anchor="middle" x="729.49" y="-1214.73" font-family="Helvetica,sans-Serif" font-size="32.00" fill="#29235c">*</text>
<text text-anchor="middle" x="470.58" y="-1540.13" font-family="Helvetica,sans-Serif" font-size="32.00" fill="#29235c">1</text>
</g>
<!-- Promotion -->
<g id="Promotion" class="node">
<title>Promotion</title>
<ellipse fill="none" stroke="black" stroke-width="0" cx="305.47" cy="-2565.53" rx="263.09" ry="172.57"/>
<polygon fill="#1d71b8" stroke="transparent" points="121.47,-2625.53 121.47,-2685.53 489.47,-2685.53 489.47,-2625.53 121.47,-2625.53"/>
<polygon fill="none" stroke="#29235c" points="121.47,-2625.53 121.47,-2685.53 489.47,-2685.53 489.47,-2625.53 121.47,-2625.53"/>
<text text-anchor="start" x="170.32" y="-2646.73" font-family="Helvetica,sans-Serif" font-weight="bold" font-size="32.00" fill="#ffffff"> &#160;&#160;&#160;&#160;&#160;&#160;Promotion &#160;&#160;&#160;&#160;&#160;&#160;</text>
<polygon fill="#e7e2dd" stroke="transparent" points="121.47,-2565.53 121.47,-2625.53 489.47,-2625.53 489.47,-2565.53 121.47,-2565.53"/>
<polygon fill="none" stroke="#29235c" points="121.47,-2565.53 121.47,-2625.53 489.47,-2625.53 489.47,-2565.53 121.47,-2565.53"/>
<text text-anchor="start" x="132.47" y="-2586.73" font-family="Helvetica,sans-Serif" font-weight="bold" font-size="32.00" fill="#29235c">id</text>
<text text-anchor="start" x="157.36" y="-2586.73" font-family="Helvetica,sans-Serif" font-size="32.00" fill="#29235c"> &#160;&#160;&#160;</text>
<text text-anchor="start" x="336.25" y="-2586.73" font-family="Helvetica,sans-Serif" font-style="italic" font-size="32.00" fill="#29235c">INTEGER</text>
<polygon fill="#e7e2dd" stroke="transparent" points="121.47,-2505.53 121.47,-2565.53 489.47,-2565.53 489.47,-2505.53 121.47,-2505.53"/>
<polygon fill="none" stroke="#29235c" points="121.47,-2505.53 121.47,-2565.53 489.47,-2565.53 489.47,-2505.53 121.47,-2505.53"/>
<text text-anchor="start" x="132.34" y="-2525.73" font-family="Helvetica,sans-Serif" font-size="32.00" fill="#29235c">description &#160;&#160;&#160;</text>
<text text-anchor="start" x="322.26" y="-2526.73" font-family="Helvetica,sans-Serif" font-style="italic" font-size="32.00" fill="#29235c">VARCHAR</text>
<polygon fill="#e7e2dd" stroke="transparent" points="121.47,-2445.53 121.47,-2505.53 489.47,-2505.53 489.47,-2445.53 121.47,-2445.53"/>
<polygon fill="none" stroke="#29235c" points="121.47,-2445.53 121.47,-2505.53 489.47,-2505.53 489.47,-2445.53 121.47,-2445.53"/>
<text text-anchor="start" x="132.47" y="-2465.73" font-family="Helvetica,sans-Serif" font-size="32.00" fill="#29235c">discount &#160;&#160;&#160;</text>
<text text-anchor="start" x="375.35" y="-2466.73" font-family="Helvetica,sans-Serif" font-style="italic" font-size="32.00" fill="#29235c">FLOAT</text>
<polygon fill="none" stroke="#29235c" stroke-width="2" points="120.47,-2444.53 120.47,-2686.53 490.47,-2686.53 490.47,-2444.53 120.47,-2444.53"/>
</g>
<!-- Shipment -->
<g id="Shipment" class="node">
<title>Shipment</title>
<ellipse fill="none" stroke="black" stroke-width="0" cx="305.47" cy="-1197.53" rx="305.44" ry="172.57"/>
<polygon fill="#1d71b8" stroke="transparent" points="91.47,-1257.53 91.47,-1317.53 519.47,-1317.53 519.47,-1257.53 91.47,-1257.53"/>
<polygon fill="none" stroke="#29235c" points="91.47,-1257.53 91.47,-1317.53 519.47,-1317.53 519.47,-1257.53 91.47,-1257.53"/>
<text text-anchor="start" x="175.65" y="-1278.73" font-family="Helvetica,sans-Serif" font-weight="bold" font-size="32.00" fill="#ffffff"> &#160;&#160;&#160;&#160;&#160;&#160;Shipment &#160;&#160;&#160;&#160;&#160;&#160;</text>
<polygon fill="#e7e2dd" stroke="transparent" points="91.47,-1197.53 91.47,-1257.53 519.47,-1257.53 519.47,-1197.53 91.47,-1197.53"/>
<polygon fill="none" stroke="#29235c" points="91.47,-1197.53 91.47,-1257.53 519.47,-1257.53 519.47,-1197.53 91.47,-1197.53"/>
<text text-anchor="start" x="102.47" y="-1218.73" font-family="Helvetica,sans-Serif" font-weight="bold" font-size="32.00" fill="#29235c">id</text>
<text text-anchor="start" x="127.36" y="-1218.73" font-family="Helvetica,sans-Serif" font-size="32.00" fill="#29235c"> &#160;&#160;&#160;</text>
<text text-anchor="start" x="366.25" y="-1218.73" font-family="Helvetica,sans-Serif" font-style="italic" font-size="32.00" fill="#29235c">INTEGER</text>
<polygon fill="#e7e2dd" stroke="transparent" points="91.47,-1137.53 91.47,-1197.53 519.47,-1197.53 519.47,-1137.53 91.47,-1137.53"/>
<polygon fill="none" stroke="#29235c" points="91.47,-1137.53 91.47,-1197.53 519.47,-1197.53 519.47,-1137.53 91.47,-1137.53"/>
<text text-anchor="start" x="102.47" y="-1157.73" font-family="Helvetica,sans-Serif" font-size="32.00" fill="#29235c">order_id &#160;&#160;&#160;</text>
<text text-anchor="start" x="366.25" y="-1158.73" font-family="Helvetica,sans-Serif" font-style="italic" font-size="32.00" fill="#29235c">INTEGER</text>
<polygon fill="#e7e2dd" stroke="transparent" points="91.47,-1077.53 91.47,-1137.53 519.47,-1137.53 519.47,-1077.53 91.47,-1077.53"/>
<polygon fill="none" stroke="#29235c" points="91.47,-1077.53 91.47,-1137.53 519.47,-1137.53 519.47,-1077.53 91.47,-1077.53"/>
<text text-anchor="start" x="102.26" y="-1097.73" font-family="Helvetica,sans-Serif" font-size="32.00" fill="#29235c">shipment_date &#160;&#160;&#160;</text>
<text text-anchor="start" x="347.09" y="-1098.73" font-family="Helvetica,sans-Serif" font-style="italic" font-size="32.00" fill="#29235c">DATETIME</text>
<polygon fill="none" stroke="#29235c" stroke-width="2" points="90.47,-1076.53 90.47,-1318.53 520.47,-1318.53 520.47,-1076.53 90.47,-1076.53"/>
</g>
<!-- Shipment&#45;&gt;Order -->
<!-- Shipment&#45;&gt;Order -->
<g id="edge14" class="edge">
<title>Shipment:e&#45;&gt;Order:w</title>
<path fill="none" stroke="#29235c" stroke-width="3" d="M520.47,-1167.53C618.45,-1167.53 633.31,-1238.43 725.61,-1243.27"/>
<polygon fill="#29235c" stroke="#29235c" stroke-width="3" points="725.62,-1246.78 735.71,-1243.53 725.81,-1239.78 725.62,-1246.78"/>
<text text-anchor="middle" x="741.93" y="-1253.13" font-family="Helvetica,sans-Serif" font-size="32.00" fill="#29235c">*</text>
<text text-anchor="middle" x="511.58" y="-1138.73" font-family="Helvetica,sans-Serif" font-size="32.00" fill="#29235c">1</text>
</g>
<!-- Supplier -->
<g id="Supplier" class="node">
<title>Supplier</title>
<ellipse fill="none" stroke="black" stroke-width="0" cx="305.47" cy="-2886.53" rx="210.02" ry="130.22"/>
<polygon fill="#1d71b8" stroke="transparent" points="159.47,-2916.53 159.47,-2976.53 452.47,-2976.53 452.47,-2916.53 159.47,-2916.53"/>
<polygon fill="none" stroke="#29235c" points="159.47,-2916.53 159.47,-2976.53 452.47,-2976.53 452.47,-2916.53 159.47,-2916.53"/>
<text text-anchor="start" x="185.05" y="-2937.73" font-family="Helvetica,sans-Serif" font-weight="bold" font-size="32.00" fill="#ffffff"> &#160;&#160;&#160;&#160;&#160;&#160;Supplier &#160;&#160;&#160;&#160;&#160;&#160;</text>
<polygon fill="#e7e2dd" stroke="transparent" points="159.47,-2856.53 159.47,-2916.53 452.47,-2916.53 452.47,-2856.53 159.47,-2856.53"/>
<polygon fill="none" stroke="#29235c" points="159.47,-2856.53 159.47,-2916.53 452.47,-2916.53 452.47,-2856.53 159.47,-2856.53"/>
<text text-anchor="start" x="170.47" y="-2877.73" font-family="Helvetica,sans-Serif" font-weight="bold" font-size="32.00" fill="#29235c">id</text>
<text text-anchor="start" x="195.36" y="-2877.73" font-family="Helvetica,sans-Serif" font-size="32.00" fill="#29235c"> &#160;&#160;&#160;</text>
<text text-anchor="start" x="299.25" y="-2877.73" font-family="Helvetica,sans-Serif" font-style="italic" font-size="32.00" fill="#29235c">INTEGER</text>
<polygon fill="#e7e2dd" stroke="transparent" points="159.47,-2796.53 159.47,-2856.53 452.47,-2856.53 452.47,-2796.53 159.47,-2796.53"/>
<polygon fill="none" stroke="#29235c" points="159.47,-2796.53 159.47,-2856.53 452.47,-2856.53 452.47,-2796.53 159.47,-2796.53"/>
<text text-anchor="start" x="170.17" y="-2816.73" font-family="Helvetica,sans-Serif" font-size="32.00" fill="#29235c">name &#160;&#160;&#160;</text>
<text text-anchor="start" x="285.26" y="-2817.73" font-family="Helvetica,sans-Serif" font-style="italic" font-size="32.00" fill="#29235c">VARCHAR</text>
<polygon fill="none" stroke="#29235c" stroke-width="2" points="157.97,-2795.53 157.97,-2977.53 452.97,-2977.53 452.97,-2795.53 157.97,-2795.53"/>
</g>
</g>
</svg>
